# xmcd CD database file
#
# Track frame offsets:
#	150
#	29975
#	77812
#	105342
#	136762
#	171382
#	187192
#
# Disc length: 3703 seconds
#
# Revision: 0
# Processed by: cddbd v1.4PL0 Copyright (c) Steve Scherf et al.
# Submitted via: CDex 1.50
#
DISCID=5e0e7507
DTITLE=George Wallace - Communion
DYEAR=1988
DGENRE=New Age
TTITLE0=Mokambaku
TTITLE1=Electric Night
TTITLE2=The Eternal Return
TTITLE3=Within the Dream
TTITLE4=Demeter Rising
TTITLE5=Friendship Among Trees
TTITLE6=Embraced By Love: A Communion of Angels
EXTD=YEAR: 1988
EXTT0=
EXTT1=
EXTT2=
EXTT3=
EXTT4=
EXTT5=
EXTT6=
PLAYORDER=
